<svg width="32" height="32" viewBox="0 0 32 32" fill="none" xmlns="http://www.w3.org/2000/svg">
<path d="M26.2263 6.69188C26.2182 6.67604 26.2046 6.66364 26.1881 6.65688C24.282 5.78231 22.2704 5.15867 20.2038 4.80158C20.1851 4.79809 20.1657 4.80061 20.1484 4.80877C20.1311 4.81694 20.1169 4.83035 20.1077 4.84708C19.8338 5.34422 19.5851 5.85487 19.3627 6.37708C17.135 6.03892 14.8691 6.03892 12.6414 6.37708C12.4175 5.85355 12.1649 5.34277 11.8846 4.84708C11.875 4.83071 11.8607 4.81762 11.8436 4.8095C11.8264 4.80138 11.8072 4.79862 11.7884 4.80158C9.72164 5.15793 7.70996 5.78161 5.80405 6.65693C5.78773 6.66385 5.77397 6.67566 5.76465 6.69073C1.9532 12.3826 0.909098 17.9346 1.4213 23.4178C1.42274 23.4312 1.42687 23.4442 1.43344 23.456C1.44001 23.4678 1.44889 23.4782 1.45955 23.4865C3.67892 25.1298 6.16131 26.3841 8.8008 27.196C8.81939 27.2016 8.83923 27.2013 8.85768 27.1953C8.87612 27.1892 8.89226 27.1777 8.90395 27.1622C9.47085 26.3908 9.97317 25.574 10.4058 24.7201C10.4117 24.7084 10.4151 24.6955 10.4158 24.6824C10.4164 24.6693 10.4142 24.6562 10.4094 24.6439C10.4046 24.6317 10.3972 24.6206 10.3878 24.6115C10.3784 24.6023 10.3672 24.5952 10.3548 24.5907C9.56273 24.2876 8.79586 23.9222 8.06145 23.498C8.04811 23.4902 8.0369 23.4792 8.02882 23.466C8.02075 23.4528 8.01604 23.4378 8.01513 23.4223C8.01421 23.4069 8.01712 23.3915 8.02358 23.3774C8.03005 23.3633 8.03988 23.3511 8.0522 23.3417C8.2063 23.2263 8.3605 23.1062 8.50765 22.9849C8.52072 22.9741 8.53654 22.9672 8.55333 22.9649C8.57011 22.9627 8.58719 22.9652 8.60265 22.9721C13.4141 25.1679 18.6231 25.1679 23.3776 22.9721C23.3931 22.9647 23.4104 22.9619 23.4274 22.964C23.4445 22.966 23.4606 22.9729 23.4738 22.9837C23.621 23.105 23.7752 23.2263 23.9304 23.3417C23.9428 23.351 23.9528 23.3632 23.9593 23.3772C23.9659 23.3912 23.9689 23.4066 23.9681 23.422C23.9673 23.4375 23.9627 23.4525 23.9547 23.4658C23.9467 23.479 23.9356 23.4901 23.9223 23.498C23.1896 23.9258 22.422 24.2909 21.6278 24.5895C21.6155 24.5942 21.6043 24.6015 21.595 24.6108C21.5856 24.6201 21.5784 24.6313 21.5736 24.6436C21.5689 24.6559 21.5669 24.6691 21.5676 24.6823C21.5683 24.6955 21.5718 24.7083 21.5778 24.7201C22.0177 25.5693 22.5193 26.385 23.0785 27.1608C23.0899 27.1767 23.106 27.1887 23.1245 27.195C23.143 27.2012 23.163 27.2015 23.1817 27.1958C25.8259 26.3867 28.3126 25.1323 30.5348 23.4865C30.5456 23.4786 30.5546 23.4685 30.5612 23.4569C30.5678 23.4452 30.5719 23.4323 30.573 23.4189C31.1863 17.0798 29.5464 11.5733 26.2263 6.69188ZM11.1243 20.0791C9.67575 20.0791 8.48215 18.7497 8.48215 17.1171C8.48215 15.4845 9.6526 14.1551 11.1243 14.1551C12.6076 14.1551 13.7896 15.4961 13.7665 17.117C13.7665 18.7497 12.596 20.0791 11.1243 20.0791ZM20.8933 20.0791C19.4448 20.0791 18.2512 18.7497 18.2512 17.1171C18.2512 15.4845 19.4216 14.1551 20.8933 14.1551C22.3767 14.1551 23.5587 15.4961 23.5355 17.117C23.5355 18.7497 22.3767 20.0791 20.8933 20.0791Z" fill="white"/>
</svg>
